P3
4 4
255
0 0 0	19 19 19	0 0 0	78 78 78	
0 0 0	222 222 222	0 0 0	0 0 0	
0 0 0	0 0 0	30 30 30	0 0 0	
78 78 78	0 0 0	0 0 0	255 255 255	
