P3
4 4
255
0 0 0 	58 58 58 	0 0 0 	234 234 234 	
0 0 0 	255 255 255 	0 0 0 	0 0 0 	
0 0 0 	0 0 0 	91 91 91 	0 0 0 	
234 234 234 	0 0 0 	0 0 0 	255 255 255 	
