P3
4 4
255
2 5 5 	40 40 40 	10 13 13 	158 158 158 	
16 19 19 	255 255 255 	22 25 25 	28 31 31 	
34 36 36 	40 43 43 	62 62 62 	0 0 0 	
158 158 158 	6 6 6 	8 8 8 	26 106 106 	
