P3
4 4
255
0 0 1 	0 0 0 	0 0 1 	0 0 0 	
0 0 1 	0 0 0 	0 0 1 	0 0 1 	
0 0 0 	0 0 1 	0 0 0 	0 0 0 	
0 0 0 	0 0 0 	0 0 0 	0 60 0 	
