P3
4 4
255
0 2 0 	0 20 0 	0 6 0 	0 79 0 	
0 9 0 	0 223 0 	0 12 0 	0 15 0 	
0 18 0 	0 21 0 	0 31 0 	0 0 0 	
0 79 0 	0 3 0 	0 4 0 	0 83 0 	
