P3
4 4
255
0 0 0 	0 0 0 	0 0 0 	0 0 0 	
0 0 0 	0 0 0 	0 0 0 	0 0 0 	
0 0 0 	0 0 0 	0 0 0 	0 0 0 	
0 0 0 	0 0 0 	0 0 0 	210 140 200 	
