P3
4 4
255
1 3 2 	20 20 20 	5 7 6 	79 79 79 	
8 10 9 	223 223 223 	11 13 12 	14 16 15 	
17 18 18 	20 22 21 	31 31 31 	0 0 0 	
79 79 79 	3 3 3 	4 4 4 	223 223 223 	
