P3
4 4
255
1 2 3	20 20 20	5 6 7	79 79 79	
8 9 10	223 223 223 11 12 13	14 15 16	
17 18 18	20 21 22	31 31 31	0 0 0	
79 79 79	3 3 3	4 4 4	223 223 223	
